<svg xmlns="http://www.w3.org/2000/svg" viewBox="0 0 36 36" version="1.1" alt="WeBuyHouses225.com " class="brand-logo brand__icon">
    <g id="home-roof" transform="translate(0.000000, 11.000000)" fill="currentColor">
        <path d="M35.502,11.513 C35.502,12.153 34.995,12.673 34.367,12.673 L20.87,12.673 C20.55,12.673 20.26,12.537 20.054,12.319 L11.146,2.929 L1.938,12.332 C1.732,12.542 1.448,12.672 1.135,12.672 C0.508,12.672 2.66453526e-15,12.152 2.66453526e-15,11.512 C2.66453526e-15,11.192 0.127,10.902 0.332,10.692 L10.357,0.46 C10.562,0.25 10.847,0.12 11.16,0.12 C11.48,0.12 11.77,0.255 11.975,0.473 L14.585,3.223 L21.582,3.223 L21.582,0 L24.594,0 L24.594,3.224 L28.247,3.224 C28.587,3.224 28.893,3.378 29.102,3.619 L35.222,10.749 C35.396,10.953 35.502,11.221 35.502,11.512 L35.502,11.513 L35.502,11.513 Z M8.016,11.11 L10.493,11.11 L10.493,8.58 L8.016,8.58 L8.016,11.11 L8.016,11.11 L8.016,11.11 Z M11.75,11.11 L14.227,11.11 L14.227,8.58 L11.75,8.58 L11.75,11.11 L11.75,11.11 L11.75,11.11 Z M8.016,14.73 L10.493,14.73 L10.493,12.2 L8.016,12.2 L8.016,14.73 L8.016,14.73 L8.016,14.73 Z M11.75,14.742 L14.227,14.742 L14.227,12.212 L11.75,12.212 L11.75,14.742 L11.75,14.742 L11.75,14.742 Z" id="Shape"></path>
    </g>
</svg>